<svg width="100" height="100" viewBox="0 0 100 100" fill="none" xmlns="http://www.w3.org/2000/svg">
<path d="M97.9104 26.0015C96.7603 21.6711 93.3718 18.2606 89.0693 17.1031C81.2709 15 50 15 50 15C50 15 18.7293 15 10.9306 17.1031C6.62823 18.2607 3.23968 21.6711 2.0896 26.0015C0 33.8507 0 50.2273 0 50.2273C0 50.2273 0 66.6038 2.0896 74.453C3.23968 78.7834 6.62823 82.0519 10.9306 83.2093C18.7293 85.3124 50 85.3124 50 85.3124C50 85.3124 81.2707 85.3124 89.0693 83.2093C93.3718 82.0519 96.7603 78.7834 97.9104 74.453C100 66.6038 100 50.2273 100 50.2273C100 50.2273 100 33.8507 97.9104 26.0015ZM39.7727 65.096V35.3586L65.9089 50.2276L39.7727 65.096Z" fill="#1D1A33"/>
</svg>
